<svg enable-background="new 0 0 512 512" height="512" viewBox="0 0 512 512" width="512" xmlns="http://www.w3.org/2000/svg"><path d="m370.993 247.505c-1.48-91.949-49.777-167.927-99.326-215.637-15.755-15.171-18.298-31.368-18.298-31.368s.337 7.121-7.841 15.684c-34.38 35.998-56.228 55.032-77.107 100.632-25.995 56.77-27.444 131.995-27.444 131.995s1.383 61.921 27.444 112.393c20.175 39.073 55.718 71.011 69.799 82.729 1.295-4.417 3.78-13.374 5.479-22.498 2.634-14.159 3.817-29.218 3.828-29.367.262-3.36 3.036-5.972 6.406-6.03h.112c3.323 0 6.124 2.495 6.494 5.81.024.225 2.569 22.693 7.498 36.416 2.499 6.962 6.952 9.295 7.144 9.391 1.81.74 3.011 2.179 3.585 4.05.033.092.046.188.066.283 13.557-11.146 93.966-82.033 92.161-194.483zm-136.308 128.527c-2.333 3.726-3.799 8.009-4.15 12.533-.008.108-.41 5.194-1.254 12.061-13.187-13.832-27.639-31.538-37.705-51.033-22.441-43.465-24.874-97.274-25.063-102.668.185-6.144 2.718-73.333 25.502-123.092 12.625-27.573 25.662-44.573 42.67-62.991zm37.656 67.509s-4.321 6.509-5.228 14.372c-2.283 19.795-2.611 53.587-2.611 53.587l-13.071-3.922s-.355-22.265-2.616-39.206c-1.503-11.278-5.227-19.607-5.227-19.607s4.055-12.8 6.535-26.137c2.734-14.691 3.919-30.058 3.919-30.058s2.59 23.268 7.844 37.901c3.555 9.91 10.455 13.07 10.455 13.07z"/></svg>